<svg width="70" height="70" viewBox="0 0 70 70" fill="none" xmlns="http://www.w3.org/2000/svg">
<g clip-path="url(#clip0)">
<path d="M5.0286 19.4713C6.69 17.6586 8.43098 16.0276 10.3479 14.5133C10.5734 14.3353 10.8979 14.5484 10.8225 14.8256C9.74799 18.7747 7.87071 22.6775 4.97678 25.5788C4.84676 23.5477 4.84485 21.4996 5.0286 19.4713Z" fill="#FF901D"/>
<path d="M4.97711 25.5803C3.30627 23.5639 1.87045 21.4792 0.576817 19.2286C0.428887 18.9713 0.0354104 19.063 0.0203713 19.3596C-0.213008 23.9699 1.54848 29.3642 5.84008 31.54C5.41242 29.5794 5.10426 27.5843 4.97711 25.5803Z" fill="#FF901D"/>
<path d="M5.83984 31.5385C6.89135 29.3749 8.06836 27.362 9.44799 25.4109C9.61164 25.1794 9.97873 25.2855 9.99063 25.5688C10.1587 29.5513 9.47533 33.7611 7.56715 37.257C6.85977 35.3963 6.26313 33.4849 5.83984 31.5385Z" fill="#FF901D"/>
<path d="M7.56751 37.2584C5.39792 35.864 3.41604 34.3395 1.51497 32.6269C1.29567 32.4294 0.951687 32.6357 1.02593 32.9213C2.17122 37.3249 5.44645 41.8438 10.1094 42.642C9.14005 40.9111 8.27175 39.1145 7.56751 37.2584Z" fill="#FF901D"/>
<path d="M10.1086 42.6408C10.4887 40.2805 11.0323 38.0289 11.7891 35.7778C11.879 35.5101 12.2592 35.5049 12.3536 35.7712C13.677 39.5075 14.2131 43.7227 13.4146 47.5964C12.2008 46.0255 11.078 44.3747 10.1086 42.6408Z" fill="#FF901D"/>
<path d="M13.4154 47.5976C10.9423 46.8969 8.60581 46.0207 6.29185 44.9466C6.02456 44.8225 5.75659 45.12 5.91067 45.3711C8.28985 49.2511 12.7442 52.6102 17.4357 52.0314C15.9955 50.6516 14.6346 49.1776 13.4154 47.5976Z" fill="#FF901D"/>
<path d="M17.4345 52.0304C17.097 49.6523 16.9536 47.3328 17.0199 44.9486C17.0277 44.666 17.3903 44.5502 17.5582 44.7777C19.9278 47.9903 21.6956 51.8928 22.1186 55.8493C20.4709 54.6913 18.8887 53.4256 17.4345 52.0304Z" fill="#FF901D"/>
<path d="M64.9713 19.4713C63.3099 17.6586 61.5689 16.0276 59.652 14.5133C59.4265 14.3353 59.1019 14.5484 59.1774 14.8256C60.2519 18.7747 62.1292 22.6775 65.0231 25.5788C65.1531 23.5477 65.155 21.4996 64.9713 19.4713Z" fill="#FF901D"/>
<path d="M65.0226 25.5803C66.6935 23.5639 68.1293 21.4792 69.423 19.2286C69.5709 18.9713 69.9644 19.063 69.9794 19.3596C70.2128 23.9699 68.4513 29.3642 64.1597 31.54C64.5873 29.5794 64.8955 27.5843 65.0226 25.5803Z" fill="#FF901D"/>
<path d="M64.1602 31.5385C63.1087 29.3749 61.9316 27.362 60.552 25.4109C60.3884 25.1794 60.0213 25.2855 60.0094 25.5688C59.8414 29.5513 60.5247 33.7611 62.4329 37.257C63.1402 35.3963 63.7369 33.4849 64.1602 31.5385Z" fill="#FF901D"/>
<path d="M62.4323 37.2584C64.6018 35.864 66.5837 34.3395 68.4848 32.6269C68.7041 32.4294 69.0481 32.6357 68.9738 32.9213C67.8285 37.3249 64.5533 41.8438 59.8904 42.642C60.8597 40.9111 61.728 39.1145 62.4323 37.2584Z" fill="#FF901D"/>
<path d="M59.8914 42.6408C59.5113 40.2805 58.9677 38.0289 58.211 35.7778C58.121 35.5101 57.7408 35.5049 57.6465 35.7712C56.323 39.5075 55.787 43.7227 56.5854 47.5964C57.7992 46.0255 58.9221 44.3747 59.8914 42.6408Z" fill="#FF901D"/>
<path d="M56.5844 47.5976C59.0575 46.8969 61.3941 46.0207 63.708 44.9466C63.9753 44.8225 64.2433 45.12 64.0892 45.3711C61.71 49.2511 57.2557 52.6102 52.5642 52.0314C54.0044 50.6516 55.3653 49.1776 56.5844 47.5976Z" fill="#FF901D"/>
<path d="M52.5657 52.0304C52.9031 49.6523 53.0465 47.3328 52.9802 44.9486C52.9724 44.666 52.6099 44.5502 52.442 44.7777C50.0724 47.9903 48.3046 51.8928 47.8816 55.8493C49.5293 54.6913 51.1114 53.4256 52.5657 52.0304Z" fill="#FF901D"/>
<path d="M27.9047 58.0196C26.0113 57.0859 24.2805 56.0701 22.7604 55.0007C22.76 55.0004 22.7597 55.0003 22.7593 55C22.759 54.9999 22.7589 54.9996 22.7586 54.9995C21.062 53.8073 19.5324 52.5605 18.2117 51.2936C18.2115 51.2933 18.2112 51.2929 18.2109 51.2926C16.7285 49.8726 15.4149 48.4242 14.3064 46.9875C14.3061 46.987 14.3057 46.9866 14.3054 46.9862C14.3053 46.9861 14.3053 46.986 14.3051 46.9858C13.0547 45.3673 11.9742 43.7482 11.0937 42.1729C11.0933 42.1721 11.0928 42.1714 11.0924 42.1706C10.0938 40.3868 9.26349 38.6288 8.62474 36.9449C8.62447 36.9442 8.6242 36.9437 8.62392 36.9431V36.943C7.89439 35.0233 7.32988 33.1549 6.94584 31.3896C6.94584 31.3894 6.9457 31.3892 6.9457 31.3891C6.50478 29.3677 6.22273 27.4212 6.10748 25.6041C6.10748 25.6031 6.1072 25.6023 6.1072 25.6015C5.97322 23.5087 5.9899 21.514 6.15683 19.6728C6.15888 19.6505 6.15888 19.6284 6.15943 19.6062C6.37982 16.7591 6.90687 13.9051 7.72855 11.1219C7.89371 10.5623 7.57392 9.97482 7.01433 9.80967C6.45502 9.64437 5.86726 9.96402 5.70211 10.5239C4.8297 13.4791 4.27203 16.5113 4.04466 19.5365C4.04316 19.5572 4.04357 19.5774 4.04316 19.5978C3.87609 21.5148 3.86037 23.579 3.99859 25.7369C3.99859 25.7373 3.99859 25.7375 3.99859 25.7379C4.12054 27.6595 4.41709 29.7103 4.88015 31.8337C4.88056 31.8353 4.8807 31.8371 4.88097 31.8388C5.28716 33.7063 5.88189 35.6763 6.64875 37.6936C6.64888 37.6939 6.64888 37.6941 6.64902 37.6944C7.32482 39.4756 8.19955 41.3291 9.249 43.2034C9.24914 43.2036 9.24927 43.2039 9.24941 43.2042C9.24982 43.2049 9.25009 43.2054 9.2505 43.206C9.2505 43.206 9.2505 43.206 9.25064 43.2061C10.1818 44.8713 11.3197 46.5776 12.6331 48.2775C12.6336 48.2782 12.6342 48.2786 12.6346 48.2793C13.8064 49.7979 15.1898 51.3242 16.7467 52.8156C16.7471 52.8161 16.7473 52.8165 16.7478 52.8169C18.1457 54.1582 19.7594 55.4741 21.5441 56.7283C21.5444 56.7284 21.5445 56.7285 21.5448 56.7287C23.1537 57.8608 24.9792 58.9327 26.9702 59.9146C27.1206 59.9887 27.2799 60.0239 27.4367 60.0239C27.8262 60.0239 28.2011 59.8074 28.385 59.4345C28.643 58.9111 28.4279 58.2777 27.9047 58.0196Z" fill="#F7BC14"/>
<path d="M65.957 19.5977C65.9566 19.5773 65.957 19.5572 65.9555 19.5367C65.7282 16.511 65.1705 13.4785 64.2981 10.5239C64.1329 9.96447 63.5456 9.64536 62.9857 9.80984C62.4261 9.97499 62.1065 10.5626 62.2717 11.1222C63.0932 13.9047 63.6202 16.7586 63.8408 19.606C63.8415 19.6283 63.8415 19.6506 63.8435 19.673C64.0104 21.5135 64.0271 23.5084 63.8931 25.6019C63.8931 25.6024 63.8931 25.6028 63.8931 25.603C63.8931 25.6034 63.893 25.6037 63.893 25.6041C63.7777 27.4204 63.4957 29.3668 63.0546 31.3891C63.0546 31.3892 63.0545 31.3895 63.0545 31.3897C62.6707 33.155 62.1061 35.0234 61.3764 36.9429C61.3763 36.9432 61.3763 36.9433 61.3761 36.9436C61.376 36.9441 61.3757 36.9445 61.3755 36.945C60.7368 38.6286 59.9063 40.3873 58.9069 42.1724C58.9067 42.1725 58.9066 42.1728 58.9065 42.1729C58.0261 43.7478 56.9456 45.367 55.6949 46.9858C55.6947 46.9863 55.6944 46.9867 55.6941 46.9871C55.694 46.9872 55.694 46.9872 55.6938 46.9873C54.5857 48.4236 53.2719 49.872 51.7893 51.2925C51.789 51.2928 51.7887 51.2932 51.7885 51.2934C50.4683 52.56 48.9384 53.8069 47.2415 54.9993C47.2411 54.9996 47.2406 55 47.2401 55.0004C47.24 55.0004 47.2398 55.0006 47.2397 55.0006C45.7195 56.0703 43.9888 57.0859 42.0954 58.0195C41.572 58.2774 41.357 58.9109 41.6151 59.4341C41.799 59.8073 42.1737 60.0236 42.5634 60.0236C42.7202 60.0236 42.8795 59.9885 43.0297 59.9144C45.0205 58.9327 46.8457 57.861 48.4546 56.729C48.4551 56.7286 48.4557 56.7284 48.4562 56.728C50.2412 55.4735 51.8549 54.1576 53.2524 52.8166C53.2529 52.8162 53.2531 52.8158 53.2535 52.8154C54.811 51.323 56.1949 49.7964 57.3664 48.278C57.3666 48.278 57.3666 48.2778 57.3667 48.2777C57.3669 48.2776 57.367 48.2774 57.3671 48.2773C58.6811 46.5762 59.8197 44.8693 60.7508 43.2039C60.7515 43.2028 60.7519 43.2017 60.7524 43.2006C61.8016 41.3265 62.6759 39.4738 63.3509 37.6943C63.3509 37.6942 63.351 37.6942 63.351 37.6939C63.351 37.6938 63.3512 37.6938 63.3512 37.6935C64.1176 35.6773 64.7119 33.7085 65.1181 31.8418C65.1183 31.8414 65.1184 31.8411 65.1185 31.8407C65.5824 29.7138 65.8795 27.6605 66.0015 25.7377C66.0016 25.7362 66.0015 25.7348 66.0015 25.7335C66.1397 23.576 66.124 21.513 65.957 19.5977Z" fill="#F7BC14"/>
<path d="M28.9969 40.4705C25.9513 40.4706 22.9829 39.3915 20.6208 37.3815C17.7068 34.9017 16.0354 31.2854 16.0354 27.4602V23.888C16.0354 23.4751 16.1965 23.0868 16.4888 22.7952C16.7801 22.5047 17.167 22.3447 17.5783 22.3447C17.5796 22.3447 17.581 22.3447 17.5824 22.3447L26.935 22.3652C27.5184 22.3665 27.9904 22.8405 27.9891 23.424C27.9878 24.0065 27.515 24.4781 26.9328 24.4781C26.932 24.4781 26.9312 24.4781 26.9304 24.4781L18.1483 24.4588L18.1481 27.4601C18.1481 30.6647 19.5484 33.6944 21.9899 35.7721C24.4127 37.8339 27.5978 38.7257 30.7269 38.218C30.8355 38.2004 30.9447 38.1819 31.055 38.1627C31.6304 38.063 32.1772 38.4464 32.2779 39.021C32.3785 39.5958 31.9942 40.1432 31.4195 40.2438C31.3005 40.2646 31.1822 40.2847 31.065 40.3037C30.3761 40.4155 29.6843 40.4705 28.9969 40.4705Z" fill="#FFB125"/>
<path d="M41.0029 40.4704C40.3152 40.4704 39.624 40.4154 38.9347 40.3037C38.8175 40.2847 38.6992 40.2646 38.5801 40.2438C38.0054 40.1432 37.6212 39.5956 37.7218 39.021C37.8224 38.4462 38.3706 38.0627 38.9446 38.1627C39.0548 38.1821 39.1642 38.2005 39.2728 38.218C42.4025 38.7253 45.587 37.8339 48.0098 35.7722C50.4513 33.6946 51.8516 30.6649 51.8516 27.4601V24.4588L43.0694 24.4781C43.0686 24.4781 43.0678 24.4781 43.067 24.4781C42.4847 24.4781 42.0119 24.0067 42.0107 23.424C42.0093 22.8405 42.4813 22.3665 43.0648 22.3652L52.4179 22.3447C52.4192 22.3447 52.4206 22.3447 52.422 22.3447C52.8329 22.3447 53.2197 22.5046 53.5112 22.7952C53.8035 23.087 53.9646 23.475 53.9646 23.888V27.4602C53.9646 31.2854 52.2933 34.9017 49.3791 37.3815C47.0171 39.3912 44.0483 40.4704 41.0029 40.4704Z" fill="#FFB125"/>
<path d="M28.0542 55.7802H41.9461C36.1917 48.483 36.7922 37.9663 36.7922 37.9663H35.0002H33.2082C33.2082 37.9664 33.8087 48.4831 28.0542 55.7802Z" fill="#FED130"/>
<path d="M36.7921 37.9666H35.0001H33.2081C33.2081 37.9666 33.3011 39.5994 33.062 42.0245C32.6061 46.6471 33.7528 51.3103 36.4582 55.0861C36.6261 55.3204 36.8 55.552 36.9801 55.7803H41.9461C36.1916 48.4832 36.7921 37.9666 36.7921 37.9666Z" fill="#F7BC14"/>
<path d="M24.5208 19.3174V28.5337C24.5208 33.9863 27.1123 39.1144 31.5022 42.3486C33.5822 43.881 36.4175 43.881 38.4975 42.3486C42.8874 39.1145 45.4789 33.9863 45.4789 28.5337V19.3174H24.5208Z" fill="#FED130"/>
<path d="M40.4895 19.3174V28.5337C40.4895 33.9864 37.898 39.1144 33.5081 42.3486C33.1897 42.5832 32.8535 42.7815 32.5051 42.9442C34.4326 43.8447 36.7359 43.6465 38.4975 42.3486C42.8874 39.1145 45.4789 33.9864 45.4789 28.5337V19.3174H40.4895Z" fill="#F7BC14"/>
<path d="M46.23 20.757H23.7704C23.4319 20.757 23.1575 20.4826 23.1575 20.1441V17.6041C23.1575 17.2656 23.4319 16.9912 23.7704 16.9912H46.23C46.5685 16.9912 46.8429 17.2656 46.8429 17.6041V20.1441C46.8428 20.4826 46.5684 20.757 46.23 20.757Z" fill="#FFB125"/>
<path d="M46.2299 16.9915H41.8533V20.7571H46.2299C46.5684 20.7571 46.8427 20.4827 46.8427 20.1442V17.6042C46.8427 17.2658 46.5683 16.9915 46.2299 16.9915Z" fill="#FF901D"/>
<path d="M46.917 60.234H23.1772C22.8331 60.234 22.5942 59.8912 22.7134 59.5684L24.4764 54.7915C24.5481 54.5972 24.7332 54.4683 24.9402 54.4683H45.154C45.361 54.4683 45.5461 54.5972 45.6178 54.7915L47.3808 59.5684C47.5 59.8912 47.2611 60.234 46.917 60.234Z" fill="#FFB125"/>
<path d="M47.3809 59.5684L45.6179 54.7915C45.5462 54.5972 45.3612 54.4683 45.154 54.4683H40.3325L42.4604 60.234H46.917C47.2612 60.234 47.5 59.8912 47.3809 59.5684Z" fill="#FF901D"/>
</g>
<defs>
<clipPath id="clip0">
<rect width="70" height="70" fill="white"/>
</clipPath>
</defs>
</svg>
