<svg width="32" height="40" viewBox="0 0 32 40" fill="none" xmlns="http://www.w3.org/2000/svg">
<path d="M9.33089 6.2069L5.65503 0H12.324L15.9999 6.2069H9.33089Z" fill="#FB7B76"/>
<path d="M16 6.2069L19.6759 0H26.3448L22.669 6.2069H16Z" fill="#FF5364"/>
<path d="M23.1585 6.55871C23.07 6.20767 22.8471 5.90547 22.5378 5.71733C22.3211 5.58715 22.0733 5.51803 21.8205 5.51733H10.1792C9.94845 5.51898 9.72146 5.57573 9.51711 5.68285C9.17835 5.86638 8.93288 6.18449 8.84125 6.55871L7.84814 10.5311H24.1516L23.1585 6.55871Z" fill="#547580"/>
<path d="M15.9998 40C24.7601 40 31.8618 32.8983 31.8618 24.1379C31.8618 15.3776 24.7601 8.27588 15.9998 8.27588C7.23939 8.27588 0.137695 15.3776 0.137695 24.1379C0.137695 32.8983 7.23939 40 15.9998 40Z" fill="#F0C419"/>
<path d="M30.4067 17.5102C24.391 15.3113 17.6431 16.9469 13.3018 21.6562C8.96059 26.3656 7.87831 33.224 10.5584 39.0413C3.80518 36.5777 -0.447252 29.8807 0.195301 22.7209C0.837855 15.5611 6.21476 9.72834 13.2987 8.50654C20.3827 7.28474 27.4029 10.9793 30.4067 17.5102Z" fill="#F3D55B"/>
<path d="M20.131 37.2419C20.0668 37.2418 20.0028 37.2327 19.9411 37.2149C18.9528 36.9326 17.995 36.5528 17.0818 36.0811C16.8729 35.973 16.7334 35.7659 16.7119 35.5317C16.6904 35.2974 16.7897 35.0684 16.9754 34.924C17.6055 34.441 18.1569 33.8632 18.6099 33.2113C18.8272 32.9023 19.2526 32.8255 19.5641 33.0391C19.8757 33.2527 19.9574 33.6772 19.7475 33.9913C19.4243 34.4608 19.0557 34.8974 18.647 35.2947C19.1917 35.5275 19.7506 35.7259 20.3202 35.8888C20.6513 35.9829 20.8623 36.3068 20.8147 36.6477C20.767 36.9886 20.4752 37.2422 20.131 37.2418L20.131 37.2419Z" fill="#F29C1F"/>
<path d="M23.8296 35.227C23.0493 35.2273 22.2707 35.1565 21.5034 35.0152C21.2923 34.9762 21.1115 34.8411 21.0142 34.6498C20.9169 34.4585 20.9141 34.2329 21.0068 34.0393C21.3243 33.379 21.5457 32.6766 21.6641 31.9535C21.725 31.5774 22.0791 31.3219 22.4552 31.3827C22.8312 31.4436 23.0867 31.7977 23.0259 32.1738C22.9368 32.722 22.7968 33.2608 22.6077 33.7831C23.1599 33.8416 23.7156 33.8604 24.2705 33.8393C24.6512 33.8248 24.9716 34.1216 24.9861 34.5023C25.0006 34.883 24.7038 35.2034 24.3231 35.2179C24.1587 35.224 23.9942 35.227 23.8296 35.227Z" fill="#F29C1F"/>
<path d="M24.7309 32.6898C24.5431 32.6898 24.3634 32.6132 24.2334 32.4777C24.1033 32.3422 24.0341 32.1595 24.0418 31.9719C24.0728 31.2392 24.0124 30.5055 23.8621 29.7877C23.8112 29.5466 23.8928 29.2967 24.0761 29.1321C24.2595 28.9675 24.5167 28.9132 24.7509 28.9896C24.9852 29.0661 25.1608 29.2617 25.2117 29.5028C25.3272 30.0522 25.3968 30.6102 25.4199 31.171C25.9337 31.0536 26.438 30.8977 26.9285 30.7047C27.1585 30.611 27.4212 30.6482 27.6162 30.8022C27.8111 30.9563 27.9082 31.2032 27.8702 31.4487C27.8323 31.6942 27.6652 31.9004 27.4329 31.9884C26.5946 32.3194 25.7208 32.5525 24.829 32.6829C24.7965 32.6876 24.7637 32.6899 24.7309 32.6898Z" fill="#F29C1F"/>
<path d="M26.7047 29.5191C26.4027 29.5189 26.1359 29.3224 26.046 29.0342C25.8288 28.3298 25.5315 27.6527 25.16 27.016C24.9704 26.6879 25.0811 26.2682 25.4079 26.0763C25.7348 25.8843 26.1552 25.9921 26.3494 26.3176C26.6316 26.7994 26.876 27.3023 27.0804 27.8219C27.5208 27.5462 27.9405 27.2387 28.3362 26.9019C28.524 26.7424 28.7826 26.6952 29.0147 26.778C29.2467 26.8609 29.4169 27.0613 29.4612 27.3037C29.5054 27.5461 29.417 27.7937 29.2292 27.9532C28.5518 28.5312 27.8112 29.0306 27.0215 29.442C26.9236 29.4926 26.8149 29.519 26.7047 29.5191Z" fill="#F29C1F"/>
<path d="M27.5508 25.8849C27.533 25.8849 27.5148 25.8842 27.497 25.8829C27.2925 25.8669 27.1058 25.7607 26.9874 25.5933C26.569 24.9966 26.0835 24.45 25.5405 23.9641C25.2609 23.71 25.2378 23.2782 25.4887 22.9958C25.7396 22.7133 26.1711 22.6853 26.4564 22.9329C26.8656 23.2975 27.246 23.6932 27.5943 24.1163C27.9315 23.7097 28.2397 23.28 28.5167 22.8302C28.7168 22.5061 29.1418 22.4055 29.466 22.6056C29.7902 22.8057 29.8907 23.2308 29.6906 23.5549C29.2208 24.3198 28.6691 25.0311 28.0452 25.6765C27.9153 25.8098 27.737 25.885 27.5508 25.8849Z" fill="#F29C1F"/>
<path d="M27.2686 22.1582C27.1199 22.1582 26.9752 22.1101 26.8561 22.0211C26.2813 21.5896 25.6572 21.228 24.9969 20.9439C24.7703 20.8473 24.6123 20.6371 24.5827 20.3925C24.553 20.1479 24.6561 19.906 24.8531 19.758C25.0501 19.61 25.3111 19.5783 25.5378 19.6749C26.0373 19.8886 26.5189 20.1419 26.978 20.4323C27.1792 19.9334 27.3443 19.4206 27.472 18.898C27.5289 18.6568 27.7109 18.4646 27.9487 18.3947C28.1865 18.3248 28.4436 18.3879 28.622 18.5599C28.8004 18.732 28.8728 18.9865 28.8116 19.2267C28.5973 20.1071 28.2872 20.9614 27.8869 21.7743C27.796 21.9577 27.6284 22.0914 27.4293 22.1393C27.3766 22.1517 27.3227 22.158 27.2686 22.1582Z" fill="#F29C1F"/>
<path d="M25.8588 18.7093C25.7871 18.7094 25.7159 18.6982 25.6477 18.6763C24.9558 18.4521 24.2394 18.312 23.514 18.2591C23.1341 18.2323 22.8478 17.9026 22.8745 17.5226C22.9013 17.1427 23.231 16.8564 23.611 16.8831C24.1637 16.9226 24.7123 17.0068 25.2513 17.135C25.2809 16.5999 25.268 16.0632 25.2129 15.5301C25.1834 15.2829 25.2895 15.0389 25.4905 14.8919C25.6914 14.7448 25.9561 14.7175 26.1828 14.8205C26.4095 14.9234 26.5632 15.1406 26.5848 15.3887C26.6792 16.2953 26.6648 17.21 26.542 18.1133C26.4952 18.4548 26.2035 18.7093 25.8588 18.7093Z" fill="#F29C1F"/>
<path d="M11.8691 37.2418C11.5249 37.2421 11.2331 36.9886 11.1854 36.6477C11.1377 36.3068 11.3487 35.9829 11.6799 35.8888C12.2495 35.7259 12.8083 35.5275 13.3531 35.2947C12.9444 34.8974 12.5758 34.4608 12.2526 33.9913C12.0427 33.6772 12.1244 33.2527 12.4359 33.0391C12.7475 32.8255 13.1729 32.9023 13.3901 33.2113C13.8432 33.8632 14.3946 34.441 15.0246 34.924C15.2104 35.0684 15.3097 35.2974 15.2882 35.5317C15.2667 35.7659 15.1272 35.973 14.9183 36.0811C14.0051 36.5528 13.0473 36.9326 12.059 37.2149C11.9973 37.2327 11.9333 37.2417 11.8691 37.2418Z" fill="#F29C1F"/>
<path d="M8.17011 35.2269C8.00574 35.2269 7.84128 35.2239 7.67673 35.2178C7.29603 35.2033 6.99918 34.8829 7.01369 34.5022C7.02821 34.1215 7.34858 33.8247 7.72928 33.8392C8.28419 33.8606 8.83991 33.8418 9.39211 33.783C9.20303 33.2607 9.06302 32.7219 8.9739 32.1737C8.93455 31.9304 9.02797 31.6846 9.21897 31.5289C9.40996 31.3732 9.66952 31.3312 9.89986 31.4188C10.1302 31.5063 10.2963 31.7101 10.3357 31.9534C10.4541 32.6765 10.6755 33.3789 10.993 34.0392C11.0857 34.2328 11.0829 34.4584 10.9856 34.6497C10.8883 34.841 10.7075 34.9761 10.4965 35.0151C9.72906 35.1564 8.95038 35.2272 8.17011 35.2269Z" fill="#F29C1F"/>
<path d="M7.26877 32.6896C7.23589 32.6897 7.20304 32.6874 7.17049 32.6827C6.27873 32.5523 5.40503 32.3193 4.56677 31.9883C4.33444 31.9004 4.16738 31.6942 4.12944 31.4487C4.0915 31.2032 4.18854 30.9563 4.38347 30.8022C4.57841 30.6482 4.84111 30.611 5.07118 30.7047C5.56166 30.8977 6.06595 31.0536 6.5798 31.171C6.60286 30.6102 6.67248 30.0522 6.78794 29.5028C6.83883 29.2617 7.01448 29.0661 7.24872 28.9896C7.48296 28.9132 7.7402 28.9675 7.92355 29.1321C8.10689 29.2967 8.18849 29.5466 8.1376 29.7877C7.98729 30.5055 7.92689 31.2392 7.9578 31.9719C7.96545 32.1595 7.89626 32.3421 7.76622 32.4775C7.63618 32.613 7.45654 32.6896 7.26877 32.6896Z" fill="#F29C1F"/>
<path d="M5.29485 29.5191C5.1846 29.5191 5.07595 29.4926 4.97802 29.442C4.1883 29.0306 3.44768 28.5312 2.7703 27.9532C2.5825 27.7937 2.49408 27.5461 2.53833 27.3037C2.58258 27.0613 2.75279 26.8609 2.98485 26.778C3.2169 26.6952 3.47554 26.7424 3.66334 26.9019C4.05899 27.2387 4.47868 27.5462 4.91906 27.8219C5.12351 27.3023 5.36792 26.7994 5.65009 26.3176C5.84428 25.9921 6.26474 25.8843 6.59157 26.0763C6.9184 26.2682 7.02911 26.6879 6.83947 27.016C6.46796 27.6528 6.17071 28.33 5.95354 29.0345C5.86363 29.3227 5.59682 29.5191 5.29485 29.5194V29.5191Z" fill="#F29C1F"/>
<path d="M4.4492 25.885C4.26299 25.885 4.08469 25.8097 3.95485 25.6762C3.33098 25.0309 2.77926 24.3195 2.30947 23.5547C2.10935 23.2305 2.20992 22.8055 2.53409 22.6054C2.85827 22.4053 3.28329 22.5058 3.4834 22.83C3.76039 23.2797 4.06859 23.7095 4.40575 24.1161C4.75405 23.6929 5.13449 23.2973 5.54368 22.9327C5.829 22.685 6.26045 22.7131 6.51135 22.9955C6.76224 23.278 6.73917 23.7097 6.45961 23.9639C5.91651 24.4498 5.43099 24.9964 5.01258 25.5931C4.89421 25.7606 4.7075 25.8667 4.50306 25.8827C4.4852 25.8843 4.46699 25.885 4.4492 25.885Z" fill="#F29C1F"/>
<path d="M4.73111 22.1584C4.677 22.1583 4.62308 22.1519 4.57042 22.1395C4.37134 22.0917 4.20375 21.958 4.11283 21.7745C3.71251 20.9616 3.40243 20.1074 3.18814 19.227C3.12691 18.9868 3.19928 18.7322 3.37771 18.5602C3.55613 18.3881 3.81316 18.325 4.05096 18.395C4.28877 18.4649 4.47075 18.657 4.52766 18.8983C4.65544 19.4209 4.82053 19.9336 5.02166 20.4326C5.48087 20.1421 5.96256 19.8889 6.46214 19.6752C6.68882 19.5786 6.94982 19.6102 7.14683 19.7582C7.34383 19.9062 7.44691 20.1481 7.41724 20.3927C7.38757 20.6373 7.22965 20.8475 7.00297 20.9442C6.34271 21.2282 5.7186 21.5899 5.1438 22.0214C5.02461 22.1104 4.87984 22.1584 4.73111 22.1584Z" fill="#F29C1F"/>
<path d="M6.14123 18.7093C5.79655 18.7093 5.5048 18.4548 5.45799 18.1133C5.3352 17.21 5.32084 16.2953 5.41523 15.3887C5.43682 15.1406 5.59046 14.9234 5.8172 14.8205C6.04394 14.7175 6.30856 14.7448 6.50952 14.8919C6.71049 15.0389 6.81658 15.2829 6.7871 15.5301C6.73197 16.0632 6.71913 16.5999 6.74868 17.135C7.28775 17.0068 7.83633 16.9226 8.38903 16.8831C8.76898 16.8564 9.0987 17.1427 9.12548 17.5226C9.15225 17.9026 8.86595 18.2323 8.48599 18.2591C7.7606 18.312 7.04422 18.4521 6.35234 18.6763C6.28411 18.6982 6.21289 18.7094 6.14123 18.7093Z" fill="#F29C1F"/>
</svg>
