<svg width="39" height="35" viewBox="0 0 39 35" fill="none" xmlns="http://www.w3.org/2000/svg">
<path fill-rule="evenodd" clip-rule="evenodd" d="M28.6652 4.67027L28.6652 4.67026C28.778 4.24908 29.0244 3.75081 29.2143 3.46314C30.5797 0.894739 33.7123 0.154162 36.1472 1.59658C38.5821 3.03899 39.4562 6.09459 38.0138 8.52949C37.7674 9.02774 37.444 9.39249 37.1206 9.75724L37.1205 9.75726C36.7971 10.122 36.3966 10.3533 35.996 10.5845C32.4477 12.4551 29.439 15.2603 27.2932 18.6353C26.0614 21.1266 25.2508 23.7308 24.9384 26.5813L24.553 25.9138C24.2446 25.3797 23.5922 24.8664 23.0169 24.4865C22.6907 24.2298 22.3311 23.9924 21.9715 23.7549C21.6119 23.5175 21.2523 23.2801 20.9261 23.0234C22.9081 21.5231 24.6588 19.6222 25.9113 17.475C27.7693 13.9101 28.708 9.98593 28.5372 5.99023C28.4395 5.51263 28.5523 5.09145 28.6652 4.67027ZM27.2171 5.86233L27.3245 4.19825C27.4373 3.77707 27.5502 3.35589 27.8736 2.99114C25.3163 4.11159 22.5277 4.83151 19.6978 4.86323C17.5561 4.85365 15.3167 4.36645 13.2672 3.59158C11.6389 2.92957 10.0106 2.26756 8.43874 1.39495C8.30525 1.32895 8.18687 1.26699 8.07699 1.20948L8.07696 1.20946C7.77673 1.05234 7.53995 0.928412 7.23162 0.845796C6.81044 0.732941 6.38926 0.620084 5.91165 0.717819C3.08177 0.749541 0.663474 3.03581 0.695197 5.86569C0.726919 8.69558 2.9361 10.9804 5.76599 10.9486C6.66478 10.9638 7.54292 10.6348 8.34397 10.1723C11.7381 8.03465 15.749 6.96509 19.7447 6.79433C22.174 6.99385 24.5469 7.40396 26.8841 8.36877C26.9763 7.60349 27.0685 6.8382 27.2171 5.86233ZM24.5956 31.2295C24.9342 29.966 24.7745 28.4561 24.1578 27.388L23.6954 26.5869C23.2535 26.13 22.8888 25.8065 22.3134 25.4267C18.7485 23.5686 15.7534 20.8475 13.6157 17.4533C12.3824 15.3172 11.6832 12.8727 11.328 10.4076C11.0094 10.5915 10.6733 10.745 10.3219 10.9055L10.3218 10.9056C9.93687 11.0814 9.53352 11.2656 9.11476 11.5074C8.3137 11.9699 7.22497 12.2424 6.40326 12.3608C8.78173 14.0138 10.6262 15.9752 12.0907 18.5118C13.9613 22.0602 14.8203 26.0146 14.7805 29.9538C14.7447 30.5085 14.9195 31.1196 15.0943 31.7308L15.5568 32.5318C16.9443 34.935 20.2367 35.7043 22.5627 34.1833C23.4202 33.5103 24.2571 32.4931 24.5956 31.2295Z" fill="#303030"/>
</svg>
