<svg width="30" height="26" viewBox="0 0 30 26" fill="none" xmlns="http://www.w3.org/2000/svg">
<path d="M1.68633 15.3526L1.6395 15.3424L21.7141 15.3424L15.4034 21.667C15.0944 21.9758 14.9249 22.3941 14.9249 22.8331C14.9249 23.2722 15.0944 23.6875 15.4034 23.997L16.3854 24.9795C16.6941 25.2883 17.1056 25.459 17.5444 25.459C17.9834 25.459 18.3951 25.2895 18.7039 24.9807L29.5217 14.1639C29.8317 13.8539 30.0012 13.4409 30 13.0017C30.0012 12.56 29.8317 12.1468 29.5217 11.8373L18.7039 1.01947C18.3951 0.710935 17.9837 0.541179 17.5444 0.541179C17.1056 0.541179 16.6941 0.711179 16.3854 1.01947L15.4034 2.00191C15.0944 2.3102 14.9249 2.72191 14.9249 3.16094C14.9249 3.59971 15.0944 3.98972 15.4034 4.29825L21.7854 10.6583L1.66389 10.6582C0.759746 10.6582 -1.02183e-05 11.4375 -1.02973e-05 12.3412L-1.04188e-05 13.7307C-1.04978e-05 14.6343 0.782185 15.3526 1.68633 15.3526Z" fill="#FF3754"/>
</svg>
